<?xml version="1.0" encoding="utf-8"?>
<!-- Generator: Adobe Illustrator 21.1.0, SVG Export Plug-In . SVG Version: 6.00 Build 0)  -->
<!DOCTYPE svg PUBLIC "-//W3C//DTD SVG 1.1//EN" "http://www.w3.org/Graphics/SVG/1.1/DTD/svg11.dtd">
<svg version="1.1" id="Logo" xmlns="http://www.w3.org/2000/svg" xmlns:xlink="http://www.w3.org/1999/xlink" x="0px" y="0px"
	 viewBox="0 0 600 215" style="enable-background:new 0 0 600 215;" xml:space="preserve">
<g id="Brand">
	<path d="M247.4,107.5c0.1-10.9,3.9-15.1,12.3-15.1c8.3,0,11.7,3.7,11.7,15.1H247.4z M260.5,130.6c-9.4,0-12.8-4.5-12.9-13.6h35.2
		l0.8-8.9c0-17.7-7.9-26-23.8-26c-15.7,0-24.6,9.4-24.6,30.2c0,20,6.6,29.1,23.6,29.1c10,0,22.9-2.6,22.9-2.6l-0.2-9.2
		C281.4,129.6,269.5,130.6,260.5,130.6"/>
	<path d="M315.6,130.4c-2.3,0-8.5-0.5-8.5-0.5V95.4c0,0,6.7-2.3,12.7-2.3c7.6,0,10.9,5,10.9,17.8
		C330.7,124.8,328.2,130.4,315.6,130.4 M321.3,82.1c-6.4,0-14.2,3.4-14.2,3.4V59.8h-12.3V140c0,0,14.8,1.4,20.8,1.4
		c20.3,0,27.7-6.9,27.7-30.4C343.3,89.7,336.7,82.1,321.3,82.1"/>
	<path d="M377.3,82.1c-16.9,0-23.7,8.5-23.7,28.8c0,21.8,6,30.4,23.5,30.4c5.8,0,17.3-2,17.3-2l-0.3-9.9c0,0-9,0.9-13.3,0.9
		c-12.3,0-14.6-4.9-14.6-19.4c0-13.1,2.7-17.8,14.5-17.8c4.3,0,13.3,0.9,13.3,0.9l0.5-9.8C394.3,84.3,383.3,82.1,377.3,82.1"/>
	<path d="M429.8,131c-10.6,0-12.8-6.4-12.8-19.5s2.8-18.8,12.8-18.8s12.8,5.7,12.8,18.8S440.3,131,429.8,131 M429.8,82.1
		c-19,0-25.3,10.9-25.3,29.3c0,18.8,5.9,30,25.3,30c19.5,0,25.3-11.1,25.3-30C455.1,93,448.7,82.1,429.8,82.1"/>
	<path d="M478.9,140.1v-44c0,0,6.2-3,12.8-3c8.6,0,10.1,5.6,10.1,16.9v30.1h12.3v-30.4c0-18.6-3.9-27.6-19.6-27.6
		c-7.4,0-15.7,4.8-15.7,4.8v-3.5h-12.3v56.8H478.9z"/>
	<path d="M559.9,93.9V83.4h-15.7V66.9H532v16.5h-7.3v10.6h7.3v26.3c0,16.3,4,21.1,16.8,21.1c4,0,11.6-1.5,11.6-1.5l-0.6-9.9
		c0,0-6.1,0.3-9.3,0.3c-5.9,0-6.2-3-6.2-11.5v-25H559.9z"/>
</g>
<path id="Symbol" d="M192.8,107.6l-37.6,65.1l-74.8,0L43,107.6l37.6-65.1l74.8,0L192.8,107.6z M196,107.6l-39-67.8l-77.9,0
	l-39.1,67.8l39,67.8l77.9,0L196,107.6z"/>
</svg>
